<svg id="Layer_1" data-name="Layer 1" xmlns="http://www.w3.org/2000/svg" viewBox="0 0 200 50"><defs><style>.cls-1{fill:#1a1a1a;}</style></defs><title>logo_util</title><polygon class="cls-1" points="100 10 100 0 60 0 50 0 50 10 50 20 50 30 50 40 50 50 60 50 100 50 100 40 60 40 60 30 100 30 100 20 60 20 60 10 100 10"/><path class="cls-1" d="M25,0A25,25,0,1,0,50,25,25,25,0,0,0,25,0Zm0,40A15,15,0,1,1,40,25,15,15,0,0,1,25,40Z"/><polygon class="cls-1" points="140 0 100 0 100 10 140 10 140 20 110 20 100 20 100 30 100 40 100 50 110 50 150 50 150 40 110 40 110 30 140 30 150 30 150 20 150 10 150 0 140 0"/><polygon class="cls-1" points="200 10 200 0 160 0 150 0 150 10 150 20 150 30 150 40 150 50 160 50 200 50 200 40 160 40 160 30 200 30 200 20 160 20 160 10 200 10"/></svg>